<svg xmlns="http://www.w3.org/2000/svg" width="336" height="335" viewBox="0 0 336 335">
    <defs>
        <linearGradient id="a" x1="30.182%" x2="62.483%" y1="-18.475%" y2="105.669%">
            <stop offset="0%" stop-color="#00FFF9"/>
            <stop offset="100%" stop-color="#6580FF"/>
        </linearGradient>
    </defs>
    <g fill="none" fill-rule="evenodd" transform="translate(1 1)">
        <ellipse cx="166.589" cy="166.483" stroke="#FFF" stroke-width="2" rx="166.589" ry="166.483"/>
        <path stroke="#FFF" stroke-width="3" d="M166.314 306.151c78.045 0 141.313-61.127 141.313-139.053C307.627 89.172 244.36 26 166.314 26 88.268 26 25 89.172 25 167.098c0 77.926 63.268 139.053 141.314 139.053z"/>
        <g transform="translate(8 9)">
            <path fill="#FFF" stroke="#FFF" stroke-width="2" d="M158.634 314.776c87.563 0 158.547-68.642 158.547-156.15C317.181 71.12 246.197.18 158.634.18S.087 71.119.087 158.626c0 87.508 70.984 156.15 158.547 156.15z" opacity=".2"/>
            <ellipse cx="157.11" cy="156.244" fill="url(#a)" rx="127.32" ry="127.241"/>
        </g>
        <path fill="#000" fill-opacity=".246" d="M157.228 61.976l98.008 98.008-96.44 96.44-98.008-98.008z"/>
        <g stroke="#FFF" stroke-width="2">
            <path d="M84.998 158.842l96.117 96.117 96.246-96.246-96.117-96.117z"/>
            <path d="M138.643 174.788l52.337 52.337L234.105 184l-52.337-52.337z"/>
            <path d="M172.604 180.188l15.402 15.402 19.134-19.135-15.401-15.401zM176.624 142.512l2.567 2.567 5.998-5.997-2.567-2.567zM161.199 163.072l7.843 7.843 16.28-16.278-7.844-7.844zM147.063 174.64l5.205 5.205 9.996-9.996-5.204-5.205zM153.588 181.164l5.205 5.205 9.996-9.996-5.205-5.205zM168.32 184.472l4.848 4.848 2.285-2.285-4.849-4.848zM164.035 188.756l4.85 4.848 2.284-2.285-4.849-4.849zM182.857 210.434l2.282 2.282 6.283-6.283-2.282-2.282zM187.136 214.712l2.282 2.282 6.282-6.282-2.282-2.282zM215.692 192.432l2.282 2.282 6.282-6.283-2.282-2.282zM207.552 200.571l2.282 2.282 6.283-6.283-2.282-2.282zM199.27 208.854l2.282 2.282 6.282-6.283-2.282-2.282zM196.564 199.864l2.282 2.282 6.283-6.282-2.282-2.282zM199.998 186.735l7.13 7.13 3.141-3.142-7.13-7.13zM219.838 179.729l6.56 6.56 3-2.999-6.561-6.56zM204.996 181.736l3.28 3.28 6.283-6.283-3.28-3.28zM201.152 167.04l6.56 6.56 3.57-3.57-6.56-6.56zM140.086 205.076l20.785 20.785 12.424-12.424-20.785-20.785zM176.85 231.273l9.983 9.983 5.997-5.997-9.983-9.983zM207.112 216.697l3.994 3.993 19.563-19.563-3.994-3.993zM198.116 225.693l3.993 3.993 6.855-6.854-3.994-3.993zM248.529 169.578l4.991 4.99 11.424-11.423-4.991-4.99zM236.534 181.573l4.991 4.99 8.853-8.852-4.99-4.991zM193.648 133.262l13.654 13.654 12.995-12.995-13.654-13.654zM211.751 109.953l8.556 8.556 3.713-3.712-8.557-8.557zM129.971 126.99l16.542 16.542 10.139-10.139-16.543-16.542zM97.844 155.694l25.098 25.099 16.565-16.564-25.099-25.099zM136.704 195.411l4.224 4.225 8.14-8.14-4.225-4.224zM167.792 225.5l2.282 2.281 7.64-7.64-2.282-2.282zM133.526 145.11a4.44 4.44 0 0 1-6.28.004 4.44 4.44 0 0 1 .006-6.279 4.44 4.44 0 0 1 6.279-.005 4.44 4.44 0 0 1-.005 6.28zM175.134 237.125a2.926 2.926 0 0 1-4.139.003 2.926 2.926 0 0 1 .004-4.138 2.926 2.926 0 0 1 4.138-.004 2.926 2.926 0 0 1-.003 4.139zM184.617 246.608a2.926 2.926 0 0 1-4.139.003 2.926 2.926 0 0 1 .004-4.138 2.926 2.926 0 0 1 4.138-.004 2.926 2.926 0 0 1-.003 4.14zM141.965 114.994l16.019 16.018 38.555-38.555-16.018-16.019zM227.574 134.914l9.412 9.412 5.712-5.712-9.412-9.412zM223.859 142.053l6.417 6.417 3.712-3.713-6.417-6.417zM217.11 149.442l6.418 6.417 3.713-3.712-6.418-6.418zM211.614 154.94l6.417 6.416 3.713-3.712-6.418-6.417zM242.497 167.907l1.854 1.854 4.608-4.607-1.854-1.855zM222.304 120.505l7.415 7.416 3.713-3.712-7.416-7.416zM188.985 117.603l8.556 8.556 3.713-3.712-8.556-8.557zM183.345 123.243l8.556 8.556 3.713-3.712-8.557-8.556zM242.184 160.378a2.119 2.119 0 0 1-2.997.002 2.12 2.12 0 1 1 2.999-2.999 2.12 2.12 0 0 1-.002 2.997zM236.472 166.09a2.119 2.119 0 0 1-2.997.001 2.12 2.12 0 1 1 2.999-2.999 2.12 2.12 0 0 1-.002 2.997zM231.331 171.23a2.119 2.119 0 0 1-2.996.002 2.12 2.12 0 1 1 2.999-2.999 2.12 2.12 0 0 1-.003 2.997zM236.75 176.65a2.118 2.118 0 0 1-2.995-2.995 2.119 2.119 0 0 1 2.998-.003 2.12 2.12 0 0 1-.003 2.997zM237.568 128.344a1.463 1.463 0 1 1-2.07-2.068 1.463 1.463 0 0 1 2.07 2.068zM241.312 132.156a1.463 1.463 0 1 1-2.07-2.068 1.463 1.463 0 0 1 2.07 2.068zM245.019 135.795a1.463 1.463 0 1 1-2.07-2.068 1.463 1.463 0 0 1 2.07 2.068zM253.858 148.704a1.363 1.363 0 0 1-1.927.001 1.363 1.363 0 0 1 1.928-1.928c.531.532.53 1.395-.001 1.927zM258.21 148.203a1.363 1.363 0 0 1-1.927.001 1.363 1.363 0 0 1 1.928-1.928c.531.532.53 1.395-.002 1.927zM257.708 152.554a1.363 1.363 0 0 1-1.926.001 1.363 1.363 0 0 1 1.927-1.927c.532.531.531 1.394 0 1.926zM247.432 155.13a1.363 1.363 0 0 1-1.927.001 1.363 1.363 0 0 1 1.928-1.928c.532.532.531 1.395-.001 1.927zM251.783 154.629a1.363 1.363 0 0 1-1.926 0 1.363 1.363 0 0 1 1.928-1.927c.531.531.53 1.395-.002 1.927zM251.282 158.98a1.363 1.363 0 0 1-1.926.001 1.363 1.363 0 0 1 1.928-1.927c.53.531.53 1.394-.002 1.926zM101.62 165.323l1.497 1.498 2.713-2.714-1.497-1.497zM105.22 168.924l1.497 1.497 2.714-2.713-1.498-1.498zM108.928 172.632l1.497 1.498 2.714-2.714-1.497-1.497zM112.743 176.447l1.497 1.497 2.713-2.713-1.497-1.498z"/>
            <path d="M123.8 179.936l2.709 2.71 1.5-1.5-2.71-2.71zM127.405 176.33l2.71 2.71 1.5-1.5-2.71-2.71zM131.118 172.617l2.71 2.71 1.499-1.5-2.71-2.709zM134.937 168.798l2.71 2.71 1.5-1.5-2.71-2.71zM182.483 72.233a1.463 1.463 0 1 1-2.07-2.067 1.463 1.463 0 0 1 2.07 2.067zM187.636 77.387a1.463 1.463 0 1 1-2.07-2.068 1.463 1.463 0 0 1 2.07 2.068zM193.375 83.126a1.463 1.463 0 1 1-2.07-2.068 1.463 1.463 0 0 1 2.07 2.068zM198.58 88.33a1.463 1.463 0 1 1-2.07-2.068 1.463 1.463 0 0 1 2.07 2.068zM203.757 93.508a1.463 1.463 0 1 1-2.07-2.068 1.463 1.463 0 0 1 2.07 2.068zM191.544 105.721a1.463 1.463 0 1 1-2.07-2.068 1.463 1.463 0 0 1 2.07 2.068zM185.587 111.678a1.463 1.463 0 1 1-2.07-2.068 1.463 1.463 0 0 1 2.07 2.068zM179.768 117.497a1.463 1.463 0 1 1-2.07-2.068 1.463 1.463 0 0 1 2.07 2.068zM173.84 123.425a1.463 1.463 0 1 1-2.07-2.068 1.463 1.463 0 0 1 2.07 2.068zM168.023 129.242a1.463 1.463 0 1 1-2.07-2.068 1.463 1.463 0 0 1 2.07 2.068zM152.936 142.243l6.988 6.988 3.712-3.712-6.988-6.988zM161.214 140.24l3.707 3.708 8.568-8.568-3.707-3.708zM129.846 117.987l2.408 2.407 38.555-38.555-2.407-2.408z"/>
        </g>
    </g>
</svg>
