<svg xmlns="http://www.w3.org/2000/svg" width="448" height="449" viewBox="0 0 448 449">
    <g fill="#3BFFFE" fill-rule="evenodd">
        <path d="M223.546 443.357c-55.736-.157-111.424-21.497-153.95-64.034C29.69 339.408 8.444 287.897 5.846 235.632H.597c2.6 53.609 24.363 106.458 65.292 147.397 43.55 43.563 100.578 65.413 157.657 65.57v-5.242zM.457 231.833l5.244.002c-1.813-56.023 17.78-112.6 58.782-156.423l-3.708-3.71C18.75 116.553-1.356 174.472.457 231.834M373.422 384.437c-41.128 38.5-93.486 58.13-146.077 58.89v5.242c53.93-.762 107.635-20.9 149.788-60.423l-3.71-3.71zM442.477 235.632c-2.596 52.264-23.841 103.774-63.746 143.691-.846.843-1.7 1.668-2.558 2.494l3.706 3.706c.853-.83 1.712-1.649 2.557-2.494 40.928-40.94 62.69-93.788 65.29-147.397h-5.249zM227.344 6.098c54.876.797 109.51 22.12 151.383 64.006 44.494 44.505 65.784 103.424 63.895 161.727h5.246c1.885-59.646-19.917-119.905-65.434-165.433C339.538 23.49 283.564 1.651 227.346.858l-.002 5.24zM67.103 72.66c.828-.854 1.65-1.713 2.493-2.556 42.527-42.54 98.213-63.877 153.95-64.032V.828c-57.08.154-114.106 22.008-157.655 65.57-.844.842-1.665 1.701-2.495 2.556l3.707 3.707z"/>
    </g>
</svg>
